%
T1C0.0140F200S100
X000420Y-000950
X000740Y011350
X000850Y008350
X001550Y002550
X001670Y004280
X001910Y002080
X002340Y001470
X002350Y005350
X002350Y011350
X003530Y002100
X003530Y002650
X003550Y003200
X003550Y006140
X003580Y005600
X003650Y000630
X003690Y-007530
X003710Y-005020
X003750Y005050
X003930Y006550
X003980Y003540
X004200Y004910
X004520Y006570
X004690Y003520
X004730Y004910
X005010Y006570
X005220Y004930
X005260Y003450
X005540Y-002950
X005590Y005770
X005620Y006340
X005630Y005260
X005651Y002581
X005660Y002060
X005690Y003150
X005910Y-010110
X006090Y009850
X006150Y005800
X006170Y005220
X006190Y-001750
X006190Y-000530
X006210Y006380
X006240Y-005010
X006760Y009260
X006850Y008350
X007020Y-001710
X007030Y000570
X007100Y-007800
X007590Y-010090
X007795Y-009175
X007990Y-009910
X008180Y-009180
X008230Y-002680
X008420Y-009880
X008590Y-009190
X008650Y004630
X008680Y005210
X008690Y005950
X008710Y007230
X008800Y-009840
X008830Y000690
X008975Y-009184
X008990Y-000720
X009010Y-001160
X009100Y011820
X009120Y006240
X009190Y-009920
X009340Y000680
X009370Y-009200
X009370Y-003990
X009440Y-000720
X009520Y-001180
X009570Y-009930
X009760Y-008000
X009760Y005540
X009770Y004660
X009780Y006190
X009790Y-003480
X009850Y002350
X009890Y000670
X009910Y-002460
X009960Y-009930
X010150Y-009230
X010300Y011820
X010350Y-009910
X010500Y010510
X010510Y-006010
X010550Y-009220
X010590Y011010
X010700Y008930
X010750Y-009920
X010850Y009630
X010950Y-009260
X011120Y003130
X011130Y007460
X011140Y-009910
X011140Y006930
X011210Y008960
X011338Y-009228
X011440Y008030
X011530Y007180
X011540Y-009920
X011570Y-002190
X011680Y004600
X011730Y-009240
X011810Y012370
X011900Y007520
X011930Y-009910
X011930Y008560
X012110Y-009260
X012150Y011120
X012230Y009760
X012320Y-009930
X012530Y-009290
X012530Y011010
X012550Y012090
X012660Y-003200
X012720Y-009930
X012910Y-009310
X012930Y-006030
X012990Y008740
X013080Y-004920
X013080Y011990
X013110Y-009940
X013330Y-009330
X013400Y008450
X013480Y004470
X013500Y-009920
X013575Y008835
X013580Y012040
X013700Y-009440
X013900Y-009920
X013930Y004130
X014080Y-009350
X014120Y-005570
X014290Y-009930
X014310Y008450
X014350Y-000650
X014490Y-009320
X014620Y011060
X014680Y-009920
X014770Y008240
X014880Y-009360
X014930Y002440
X014960Y003360
X014980Y012330
X015000Y004850
X015090Y-009930
X015270Y-009350
X015290Y010470
X015470Y-009910
X015540Y012300
X015670Y-009350
X015850Y-003650
X015850Y002350
X015860Y-009930
X016060Y-009340
X016140Y004720
X016260Y-009960
X016270Y004170
X016380Y005470
X016420Y008740
X016440Y-009390
X016460Y005970
X016490Y-000860
X016600Y007970
X016640Y004710
X016650Y-009900
X016720Y003520
X016820Y007360
X016860Y-009240
X017040Y-010060
X017140Y005700
X017250Y-009190
X017410Y003290
X017440Y-009990
X017440Y005380
X017480Y004280
X017670Y008040
X017830Y-006920
X018280Y-007290
X018290Y-000040
X019640Y-010900
X020280Y012150
X020350Y-006650
X020350Y-000650
X020380Y002130
X021140Y005440
X021850Y-003650
X021860Y003580
X021850Y008350
X022060Y001500
T3C0.0370F200S100
X018420Y004270
X018420Y005270
X018420Y006270
X018460Y008030
X018460Y009030
X018460Y010030
T2C0.0340F200S100
X005539Y010920
X005539Y011707
X006327Y010920
X006327Y011707
X007114Y010920
X007114Y011707
T7C0.0480F200S100
X004437Y011314
X008216Y011314
T8C0.0669F200S100
X001663Y007376
X001663Y008951
X003632Y009502
X004380Y007770
X004813Y008912
T4C0.0400F200S100
X000690Y003900
X000690Y005900
T10C0.1250F200S100
X001838Y-000249
X021720Y011520
X021858Y-010288
T9C0.0900F200S100
X007560Y007300
X014010Y007320
T5C0.0420F200S100
X001450Y-006980
X001450Y-005980
X001450Y-004980
X001450Y-003980
X001450Y-002980
T6C0.0472F200S100
X007007Y-009596
X007007Y-009596
X018030Y-009596
X018031Y-009596
M30
